Coordinates
version=1
nRows=21
nColumns=12
inDegrees=yes

Units are S.I. units (second, meters, Newtons, ...)
Angles are in degrees

endheader
time	SC_y	SC_z	SC_x	AC_y	AC_z	AC_x	GH_y	GH_z	GH_yy	EL_x	PS_y
       0.0              -43.19         0.2744          26.72          39.09         -4.751         0.9792         -72.34           50.6          96.54          29.26          155.5
    0.0162              -43.19         0.2776          26.72          39.09          -4.75         0.9782         -72.31           50.6          96.55          29.27          155.5
    0.0324              -43.19          0.281          26.72          39.09         -4.749         0.9772         -72.28           50.6          96.56          29.27          155.5
    0.0486              -43.18         0.2846          26.72          39.09         -4.748          0.976         -72.24           50.6          96.57          29.27          155.5
   0.06481              -43.18         0.2885          26.73          39.09         -4.746         0.9748          -72.2          50.61          96.58          29.28          155.5
   0.08101              -43.18         0.2926          26.73          39.09         -4.745         0.9735         -72.16          50.61           96.6          29.28          155.5
   0.09721              -43.17          0.297          26.73          39.09         -4.743         0.9721         -72.12          50.61          96.61          29.28          155.5
    0.1134              -43.17         0.3017          26.73          39.09         -4.742         0.9706         -72.07          50.61          96.62          29.29          155.5
    0.1296              -43.17         0.3067          26.74          39.09          -4.74         0.9691         -72.02          50.61          96.64          29.29          155.5
    0.1458              -43.16         0.3121          26.74          39.09         -4.738         0.9674         -71.97          50.61          96.65           29.3          155.5
     0.162              -43.16         0.3178          26.75          39.09         -4.736         0.9655         -71.91          50.61          96.67           29.3          155.5
    0.1782              -43.16         0.3241          26.75          39.09         -4.733         0.9636         -71.85          50.62          96.69          29.31          155.4
    0.1944              -43.15         0.3308          26.75          39.09         -4.731         0.9615         -71.78          50.62          96.71          29.32          155.4
    0.2106              -43.15          0.338          26.76          39.09         -4.728         0.9592         -71.71          50.62          96.73          29.32          155.4
    0.2268              -43.14         0.3458          26.76           39.1         -4.726         0.9567         -71.63          50.62          96.75          29.33          155.4
     0.243              -43.13         0.3543          26.77           39.1         -4.723          0.954         -71.55          50.63          96.78          29.34          155.4
    0.2592              -43.13         0.3636          26.78           39.1         -4.719         0.9511         -71.46          50.63          96.81          29.35          155.4
    0.2754              -43.12         0.3736          26.78           39.1         -4.716         0.9479         -71.36          50.63          96.84          29.36          155.3
    0.2916              -43.11         0.3846          26.79           39.1         -4.712         0.9445         -71.25          50.64          96.87          29.37          155.3
    0.3078               -43.1         0.3967           26.8           39.1         -4.707         0.9407         -71.13          50.64           96.9          29.38          155.3
     0.324              -43.09         0.4099          26.81           39.1         -4.703         0.9365         -70.99          50.64          96.94           29.4          155.3
